<mxfile host="65bd71144e">
    <diagram id="d9sq6GkxsCZO9IUFqB0S" name="第 1 页">
        <mxGraphModel dx="1374" dy="1845" grid="1" gridSize="10" guides="1" tooltips="1" connect="1" arrows="1" fold="1" page="1" pageScale="1" pageWidth="827" pageHeight="1169" math="0" shadow="0">
            <root>
                <mxCell id="0"/>
                <mxCell id="1" parent="0"/>
                <mxCell id="3" value="" style="whiteSpace=wrap;html=1;aspect=fixed;opacity=50;" vertex="1" parent="1">
                    <mxGeometry x="160" y="-80" width="920" height="920" as="geometry"/>
                </mxCell>
                <mxCell id="4" value="&lt;font style=&quot;font-size: 18px&quot;&gt;OpenSearch&lt;/font&gt;" style="rounded=0;whiteSpace=wrap;html=1;fillColor=#60a917;fontColor=#ffffff;strokeColor=#2D7600;" vertex="1" parent="1">
                    <mxGeometry x="200" y="710" width="840" height="60" as="geometry"/>
                </mxCell>
                <mxCell id="8" value="" style="rounded=0;whiteSpace=wrap;html=1;fontSize=18;opacity=50;fillColor=#1ba1e2;fontColor=#ffffff;strokeColor=#006EAF;" vertex="1" parent="1">
                    <mxGeometry x="200" y="120" width="460" height="490" as="geometry"/>
                </mxCell>
                <mxCell id="15" value="&lt;font style=&quot;font-size: 15px&quot;&gt;Flower: Restful API &amp;amp; Web Monitor&lt;/font&gt;" style="rounded=0;whiteSpace=wrap;html=1;fontSize=18;opacity=50;fillColor=#a0522d;fontColor=#ffffff;strokeColor=#6D1F00;" vertex="1" parent="1">
                    <mxGeometry x="234" y="190" width="360" height="60" as="geometry"/>
                </mxCell>
                <mxCell id="16" value="&lt;font style=&quot;font-size: 15px&quot;&gt;RabbitMQ&lt;/font&gt;" style="rounded=0;whiteSpace=wrap;html=1;fontSize=18;opacity=50;fillColor=#6d8764;fontColor=#ffffff;strokeColor=#3A5431;" vertex="1" parent="1">
                    <mxGeometry x="240" y="320" width="360" height="60" as="geometry"/>
                </mxCell>
                <mxCell id="17" value="&lt;font style=&quot;font-size: 12px&quot;&gt;Celery&lt;br&gt;Task&lt;br&gt;Node&lt;/font&gt;" style="rounded=0;whiteSpace=wrap;html=1;fontSize=18;opacity=50;direction=south;fillColor=#f0a30a;fontColor=#000000;strokeColor=#BD7000;" vertex="1" parent="1">
                    <mxGeometry x="240" y="450" width="60" height="120" as="geometry"/>
                </mxCell>
                <mxCell id="19" value="&lt;font style=&quot;font-size: 12px&quot;&gt;Celery&lt;br&gt;Task&lt;br&gt;Node&lt;br&gt;&lt;/font&gt;" style="rounded=0;whiteSpace=wrap;html=1;fontSize=18;opacity=50;direction=south;fillColor=#f0a30a;fontColor=#000000;strokeColor=#BD7000;" vertex="1" parent="1">
                    <mxGeometry x="384" y="450" width="60" height="120" as="geometry"/>
                </mxCell>
                <mxCell id="20" value="&lt;font style=&quot;font-size: 12px&quot;&gt;Celery&lt;br&gt;Task&lt;br&gt;Node&lt;br&gt;&lt;/font&gt;" style="rounded=0;whiteSpace=wrap;html=1;fontSize=18;opacity=50;direction=south;fillColor=#f0a30a;fontColor=#000000;strokeColor=#BD7000;" vertex="1" parent="1">
                    <mxGeometry x="540" y="450" width="60" height="120" as="geometry"/>
                </mxCell>
                <mxCell id="30" value="&lt;font style=&quot;font-size: 18px&quot;&gt;Task&lt;/font&gt;" style="text;html=1;strokeColor=none;fillColor=none;align=center;verticalAlign=middle;whiteSpace=wrap;rounded=0;fontSize=15;opacity=50;" vertex="1" parent="1">
                    <mxGeometry x="384" y="140" width="60" height="30" as="geometry"/>
                </mxCell>
                <mxCell id="32" value="" style="shape=flexArrow;endArrow=classic;startArrow=classic;html=1;fontSize=18;startSize=5;endSize=5;width=18;" edge="1" parent="1">
                    <mxGeometry width="100" height="100" relative="1" as="geometry">
                        <mxPoint x="269.5" y="450" as="sourcePoint"/>
                        <mxPoint x="269.5" y="380" as="targetPoint"/>
                        <Array as="points">
                            <mxPoint x="269.5" y="430"/>
                        </Array>
                    </mxGeometry>
                </mxCell>
                <mxCell id="34" value="" style="shape=flexArrow;endArrow=classic;startArrow=classic;html=1;fontSize=18;startSize=5;endSize=5;width=18;" edge="1" parent="1">
                    <mxGeometry width="100" height="100" relative="1" as="geometry">
                        <mxPoint x="413" y="450" as="sourcePoint"/>
                        <mxPoint x="413" y="380" as="targetPoint"/>
                        <Array as="points">
                            <mxPoint x="413" y="430"/>
                        </Array>
                    </mxGeometry>
                </mxCell>
                <mxCell id="35" value="" style="shape=flexArrow;endArrow=classic;startArrow=classic;html=1;fontSize=18;startSize=5;endSize=5;width=18;" edge="1" parent="1">
                    <mxGeometry width="100" height="100" relative="1" as="geometry">
                        <mxPoint x="569.5" y="450" as="sourcePoint"/>
                        <mxPoint x="569.5" y="380" as="targetPoint"/>
                        <Array as="points">
                            <mxPoint x="569.5" y="430"/>
                        </Array>
                    </mxGeometry>
                </mxCell>
                <mxCell id="36" value="" style="shape=flexArrow;endArrow=classic;startArrow=classic;html=1;fontSize=18;startSize=5;endSize=5;width=18;" edge="1" parent="1">
                    <mxGeometry width="100" height="100" relative="1" as="geometry">
                        <mxPoint x="413" y="320" as="sourcePoint"/>
                        <mxPoint x="413" y="250" as="targetPoint"/>
                        <Array as="points">
                            <mxPoint x="413" y="300"/>
                        </Array>
                    </mxGeometry>
                </mxCell>
                <mxCell id="37" value="" style="shape=flexArrow;endArrow=classic;startArrow=classic;html=1;fontSize=18;startSize=10;endSize=10;entryX=0.433;entryY=1;entryDx=0;entryDy=0;entryPerimeter=0;" edge="1" parent="1" target="8">
                    <mxGeometry width="100" height="100" relative="1" as="geometry">
                        <mxPoint x="399" y="710" as="sourcePoint"/>
                        <mxPoint x="399" y="620" as="targetPoint"/>
                    </mxGeometry>
                </mxCell>
                <mxCell id="38" value="GateWay" style="rounded=0;whiteSpace=wrap;html=1;fontSize=18;opacity=50;fillColor=#a0522d;fontColor=#ffffff;strokeColor=#6D1F00;" vertex="1" parent="1">
                    <mxGeometry x="200" y="-40" width="840" height="60" as="geometry"/>
                </mxCell>
                <mxCell id="39" value="" style="shape=flexArrow;endArrow=classic;startArrow=classic;html=1;fontSize=18;startSize=10;endSize=10;exitX=0.439;exitY=-0.002;exitDx=0;exitDy=0;exitPerimeter=0;" edge="1" parent="1" source="8">
                    <mxGeometry width="100" height="100" relative="1" as="geometry">
                        <mxPoint x="300" y="120" as="sourcePoint"/>
                        <mxPoint x="400" y="20" as="targetPoint"/>
                        <Array as="points">
                            <mxPoint x="400" y="80"/>
                        </Array>
                    </mxGeometry>
                </mxCell>
            </root>
        </mxGraphModel>
    </diagram>
</mxfile>